<?xml version="1.0" encoding="UTF-8"?>
<!DOCTYPE svg PUBLIC "-//W3C//DTD SVG 1.1//EN" "http://www.w3.org/Graphics/SVG/1.1/DTD/svg11.dtd" [
  <!ENTITY fill_color "#010101">
  <!ENTITY stroke_color "#FFFFFF">
]>
<svg version="1.1" id="Layer_1" xmlns="http://www.w3.org/2000/svg" xmlns:xlink="http://www.w3.org/1999/xlink" x="0px" y="0px"
	 width="75px" height="75px" viewBox="0 0 75 75" enable-background="new 0 0 75 75" xml:space="preserve">
<path fill="&stroke_color;" d="M39.662,55.478c-1.102-0.519-1.993-1.397-2.548-2.478H17.871C17.391,53,17,52.609,17,52.129V19.871
	C17,19.391,17.391,19,17.871,19h32.258C50.609,19,51,19.391,51,19.871v14.666c0.166-0.015,0.33-0.037,0.5-0.037
	c1.333,0,2.547,0.487,3.5,1.279V19.871C55,17.185,52.814,15,50.129,15H17.871C15.185,15,13,17.185,13,19.871v32.258
	C13,54.814,15.185,57,17.871,57h21.562C39.44,56.478,39.516,55.966,39.662,55.478z"/>
<path fill="&stroke_color;" d="M51.5,38.5c0.828,0,1.5,0.672,1.5,1.5v4.727c0.552,0.125,1.072,0.329,1.551,0.602l3.459-3.459
	c0.293-0.293,0.677-0.439,1.061-0.439s0.768,0.146,1.061,0.439c0.586,0.586,0.586,1.535,0,2.121l-3.459,3.459
	c0.272,0.479,0.477,0.999,0.602,1.551H62c0.828,0,1.5,0.672,1.5,1.5S62.828,52,62,52h-4.863c-0.08,0.249-0.182,0.488-0.294,0.722
	l3.289,3.289c0.586,0.585,0.586,1.536,0,2.121c-0.293,0.293-0.677,0.439-1.061,0.439s-0.768-0.146-1.061-0.439l-3.149-3.149
	c-0.559,0.369-1.188,0.639-1.861,0.791V60c0,0.828-0.672,1.5-1.5,1.5S50,60.828,50,60v-4.363c-0.369-0.119-0.719-0.276-1.051-0.465
	l-2.96,2.96c-0.293,0.293-0.677,0.439-1.061,0.439s-0.768-0.146-1.061-0.439c-0.586-0.585-0.586-1.536,0-2.121l2.96-2.96
	c-0.188-0.332-0.346-0.682-0.465-1.051H42c-0.828,0-1.5-0.672-1.5-1.5S41.172,49,42,49h4.227c0.152-0.674,0.422-1.303,0.791-1.861
	l-3.148-3.148c-0.586-0.586-0.586-1.535,0-2.121c0.293-0.293,0.677-0.439,1.061-0.439s0.768,0.146,1.061,0.439l3.288,3.288
	c0.233-0.112,0.473-0.214,0.722-0.294V40C50,39.172,50.672,38.5,51.5,38.5"/>
</svg>
