<?xml version="1.0" encoding="utf-8"?>
<!DOCTYPE svg PUBLIC "-//W3C//DTD SVG 1.1//EN" "http://www.w3.org/Graphics/SVG/1.1/DTD/svg11.dtd" [
       <!ENTITY ns_svg "http://www.w3.org/2000/svg">
       <!ENTITY ns_xlink "http://www.w3.org/1999/xlink">
    <!ENTITY stroke_color "#010101">
    <!ENTITY fill_color "#FFFFFF">
]>
<svg version="1.1" id="Layer_1" xmlns="http://www.w3.org/2000/svg" xmlns:xlink="http://www.w3.org/1999/xlink" x="0px" y="0px"
	 width="75px" height="75px" viewBox="0 0 75 75" enable-background="new 0 0 75 75" xml:space="preserve">
<g
     id="g3028"><path
       d="M 47,59.703 C 47,61.524 45.524,63 43.703,63 H 6.297 C 4.476,63 3,61.524 3,59.703 V 22.297 C 3,20.476 4.476,19 6.297,19 H 43.703 C 45.524,19 47,20.476 47,22.297 v 37.406 z"
       id="path3030"
       style="fill:&fill_color;" /><path
       d="m 47.5,60.203 c 0,1.821 -1.476,3.297 -3.297,3.297 H 6.797 C 4.976,63.5 3.5,62.024 3.5,60.203 V 22.797 C 3.5,20.976 4.976,19.5 6.797,19.5 h 37.406 c 1.821,0 3.297,1.476 3.297,3.297 v 37.406 z"
       id="path3032"
       style="fill:none;stroke:&stroke_color;;stroke-width:3;stroke-miterlimit:10" /></g><g
     id="g3034"><g
       id="g3036">
<path
         d="m 64.744711,11.818521 0,0 c -1.967317,0 -3.810145,0.753548 -5.188021,2.122632 L 32.286807,40.794706 21.886245,29.587171 c -1.389194,-1.473974 -3.341421,-2.30941 -5.370984,-2.30941 -1.827737,0 -3.576254,0.665221 -4.922064,1.87237 -2.9528622,2.64984 -3.1471418,7.149048 -0.432886,10.028908 l 15.561233,16.715154 c 1.35147,1.436251 3.258428,2.272606 5.242721,2.306649 l 0.02358,0 0.02452,0 0.0745,0 c 1.935252,0 3.825234,-0.77195 5.185192,-2.118031 l 32.65313,-32.183596 c 2.818941,-2.798893 2.77933,-7.301781 -0.07922,-10.043629 -1.369389,-1.313879 -3.181093,-2.037065 -5.101255,-2.037065 z"
         id="path3042"
         style="fill:#ffffff;fill-opacity:1;stroke:&stroke_color;;stroke-width:1;stroke-miterlimit:4;stroke-opacity:1;stroke-dasharray:none" />

<path
         d="m 64.744711,11.818521 0,0 c -1.967317,0 -3.810145,0.753548 -5.188021,2.122632 L 32.286807,40.794706 21.886245,29.587171 c -1.389194,-1.473974 -3.341421,-2.30941 -5.370984,-2.30941 -1.827737,0 -3.576254,0.665221 -4.922064,1.87237 -2.9528622,2.64984 -3.1471418,7.149048 -0.432886,10.028908 l 15.561233,16.715154 c 1.35147,1.436251 3.258428,2.272606 5.242721,2.306649 l 0.02358,0 0.02452,0 0.0745,0 c 1.935252,0 3.825234,-0.77195 5.185192,-2.118031 l 32.65313,-32.183596 c 2.818941,-2.798893 2.77933,-7.301781 -0.07922,-10.043629 -1.369389,-1.313879 -3.181093,-2.037065 -5.101255,-2.037065 z"
         id="path3042"
         style="fill:&fill_color;;fill-opacity:1;stroke:&stroke_color;;stroke-width:2.79456925;stroke-miterlimit:4;stroke-opacity:1;stroke-dasharray:none" /></g></g>
</svg>
