<?xml version="1.0" encoding="utf-8"?>
<!DOCTYPE svg PUBLIC "-//W3C//DTD SVG 1.1//EN" "http://www.w3.org/Graphics/SVG/1.1/DTD/svg11.dtd" [
       <!ENTITY ns_svg "http://www.w3.org/2000/svg">
       <!ENTITY ns_xlink "http://www.w3.org/1999/xlink">
    <!ENTITY stroke_color "#010101">
    <!ENTITY fill_color "#FFFFFF">
]>
<svg version="1.1" id="Layer_1" xmlns="http://www.w3.org/2000/svg" xmlns:xlink="http://www.w3.org/1999/xlink" x="0px" y="0px"
	 width="75px" height="75px" viewBox="0 0 75 75" enable-background="new 0 0 75 75" xml:space="preserve">
<g>
	<path fill="&fill_color;" d="M47,59.703C47,61.524,45.524,63,43.703,63H6.297C4.476,63,3,61.524,3,59.703V22.297
		C3,20.476,4.476,19,6.297,19h37.406C45.524,19,47,20.476,47,22.297V59.703z"/>
	<path fill="none" stroke="&stroke_color;" stroke-width="3" stroke-miterlimit="10" d="M47.5,60.203c0,1.821-1.476,3.297-3.297,3.297
		H6.797c-1.821,0-3.297-1.476-3.297-3.297V22.797c0-1.821,1.476-3.297,3.297-3.297h37.406c1.821,0,3.297,1.476,3.297,3.297V60.203z"
		/>
</g>
<g>
	<g>
		<path fill="&fill_color;" d="M31.432,57.202c-1.721-0.029-3.35-0.762-4.495-2.009L10.419,37.006c-2.312-2.515-2.146-6.454,0.376-8.773
			c1.149-1.057,2.642-1.639,4.204-1.639c1.734,0,3.402,0.731,4.575,2.007l12.099,13.366l30.039-30.322
			c1.172-1.194,2.745-1.854,4.426-1.854c1.641,0,3.188,0.633,4.357,1.783c2.442,2.401,2.476,6.343,0.074,8.788L35.938,55.35
			c-1.16,1.177-2.775,1.853-4.428,1.853H31.432z"/>
		<path fill="&stroke_color;" d="M66.139,11.292c1.193,0,2.388,0.45,3.306,1.353c1.856,1.825,1.88,4.81,0.056,6.667L34.872,54.294
			c-0.888,0.9-2.099,1.408-3.361,1.408c-0.025,0-0.053,0-0.079,0c-1.292-0.022-2.517-0.572-3.39-1.523L11.53,35.998
			c-1.761-1.916-1.635-4.899,0.281-6.661c0.905-0.832,2.048-1.243,3.188-1.243c1.273,0,2.542,0.512,3.471,1.523l13.154,14.531
			l31.153-31.447C63.7,11.762,64.919,11.292,66.139,11.292 M66.139,8.292L66.139,8.292c-2.086,0-4.04,0.819-5.501,2.307
			L31.723,39.785L20.695,27.604c-1.473-1.602-3.543-2.51-5.695-2.51c-1.938,0-3.792,0.723-5.219,2.035
			c-3.131,2.88-3.337,7.77-0.459,10.9l16.5,18.167c1.433,1.561,3.455,2.47,5.559,2.507h0.025h0.026h0.079
			c2.052,0,4.056-0.839,5.498-2.302l34.623-34.979c2.989-3.042,2.947-7.936-0.084-10.916C70.096,9.078,68.175,8.292,66.139,8.292
			L66.139,8.292z"/>
	</g>
</g>
</svg>
