<?xml version="1.0" encoding="UTF-8" standalone="no"?>
<!-- Created with Inkscape (http://www.inkscape.org/) -->

<svg
   xmlns:dc="http://purl.org/dc/elements/1.1/"
   xmlns:cc="http://creativecommons.org/ns#"
   xmlns:rdf="http://www.w3.org/1999/02/22-rdf-syntax-ns#"
   xmlns:svg="http://www.w3.org/2000/svg"
   xmlns="http://www.w3.org/2000/svg"
   version="1.1"
   width="55"
   height="55"
   viewBox="0 0 55 55"
   id="Layer_2"
   xml:space="preserve"
   style="overflow:visible"><metadata
     id="metadata3177"><rdf:RDF><cc:Work
         rdf:about=""><dc:format>image/svg+xml</dc:format><dc:type
           rdf:resource="http://purl.org/dc/dcmitype/StillImage" /><dc:title></dc:title></cc:Work></rdf:RDF></metadata><defs
     id="defs3175" /><g
     transform="translate(4,4)"
     id="g3155"><g
       transform="scale(0.84,0.84)"
       id="g3157"><rect
         width="52"
         height="52"
         x="1.5"
         y="1.5"
         id="rect3159"
         style="fill:#ffffff;stroke:#010101;stroke-width:3" /><rect
         width="11.521"
         height="12.48"
         x="5.9860001"
         y="32.168999"
         id="rect3161"
         style="fill:#ffffff;stroke:#010101;stroke-width:3" /><rect
         width="11.521"
         height="12.48"
         x="5.9860001"
         y="10.413"
         id="rect3163"
         style="fill:#ffffff;stroke:#010101;stroke-width:3" /><line
         fill="#FFFFFF"
         stroke="#010101"
         stroke-width="2"
         x1="3.803"
         y1="28.690001"
         x2="19.961"
         y2="46.255001"
         id="line3165"
         style="fill:#ffffff;stroke:#010101;stroke-width:2" /><line
         fill="#FFFFFF"
         stroke="#010101"
         stroke-width="2"
         x1="4.5359998"
         y1="49.659"
         x2="20.743"
         y2="27.865999"
         id="line3167"
         style="fill:#ffffff;stroke:#010101;stroke-width:2" /><polygon
         points="25.981,29.785 26.664,29.069 42.648,12.338 46.367,8.445 50.823,12.411 47.075,16.786 30.763,34.942 21.447,37.87 "
         id="polygon3169"
         style="fill:#ffffff;stroke:#010101;stroke-width:3" /><line
         fill="#FFFFFF"
         stroke="#010101"
         stroke-width="2"
         x1="30.452999"
         y1="34.028"
         x2="26.921"
         y2="28.98"
         id="line3171"
         style="fill:#ffffff;stroke:#010101;stroke-width:2" /></g></g><path
     d="m 42.89496,30.55272 c -1.120579,0 -2.040262,0.919683 -2.040262,2.040262 l 0,4.678998 -3.318825,-3.318825 c -0.793214,-0.791525 -2.064842,-0.793209 -2.856366,0 -0.791524,0.793215 -0.793181,2.092046 0,2.883568 l 3.346028,3.318826 -4.733403,0 c -1.120579,0 -2.040263,0.919683 -2.040263,2.040263 0,1.120577 0.919684,2.013057 2.040263,2.013057 l 4.706201,0 -3.318826,3.318824 c -0.791523,0.793212 -0.793181,2.092045 0,2.883568 0.793214,0.791522 2.092047,0.766009 2.883568,-0.02721 l 3.291623,-3.318822 0,4.733405 c 0,1.120578 0.919683,2.013057 2.040262,2.013057 1.120579,0 2.013058,-0.892479 2.013058,-2.013057 l 0,-4.760608 3.37323,3.346025 c 0.793212,0.791524 2.064842,0.793214 2.856362,0 0.791524,-0.793211 0.793218,-2.064841 0,-2.856362 l -3.346025,-3.318824 4.706201,0 c 1.120579,0 2.013058,-0.892481 2.013058,-2.013059 0,-1.12058 -0.892479,-2.040264 -2.013058,-2.040264 l -4.733403,0 3.346025,-3.373231 c 0.791523,-0.793212 0.793216,-2.037637 0,-2.829162 -0.793213,-0.791521 -2.064842,-0.82042 -2.856364,-0.0272 l -3.346026,3.37323 0,-4.706199 c 0,-1.120579 -0.892479,-2.040264 -2.013058,-2.040264 z"
     id="rect3894"
     style="fill:#ffffff;fill-opacity:1;stroke:#282828;stroke-width:1.74102724;stroke-linecap:round;stroke-linejoin:round;stroke-miterlimit:4;stroke-opacity:1;stroke-dasharray:none;overflow:visible" /></svg>